<svg width="32" height="37" viewBox="0 0 32 37" fill="none" xmlns="http://www.w3.org/2000/svg">
<path id="Union" fill-rule="evenodd" clip-rule="evenodd" d="M17.6252 1.47683C18.5984 -0.135587 20.9368 -0.135589 21.9101 1.47683L27.6537 10.9925H28.4243C30.5709 10.9925 32.2335 12.8709 31.9729 15.0016L29.6986 33.5916C29.4792 35.3848 27.9566 36.7325 26.15 36.7325H6.5024C4.73217 36.7325 3.2285 35.4369 2.96672 33.6862L0.187009 15.0962C-0.136111 12.9352 1.53773 10.9925 3.7227 10.9925H4.68822L10.272 1.7416C11.2453 0.129175 13.5837 0.129173 14.557 1.7416L20.1407 10.9925H25.1482L20.0737 2.58527C19.9347 2.35493 19.6006 2.35493 19.4616 2.58527L17.6471 5.59136L16.3944 3.51592L17.6252 1.47683ZM11.8816 10.9925H7.19367L12.1084 2.85004C12.2475 2.61969 12.5815 2.61969 12.7205 2.85004L17.6353 10.9925H14.387L15.5592 9.05043L14.3065 6.97499L11.8816 10.9925ZM5.93131 12.6319C3.87664 12.7799 2.34792 14.6526 2.65798 16.7262L2.81844 17.7993L2.90158 17.6613L7.21607 25.6238L5.43033 28.5659L4.05404 26.0627L4.9142 31.8152C4.9523 32.07 5.01669 32.3151 5.10437 32.548L8.75876 26.5271C10.0569 26.6983 11.3059 26.8345 12.5011 26.9175C11.5808 29.7701 9.96486 31.6878 8.14222 33.8508L8.14177 33.8514L8.14118 33.8521C7.96668 34.0592 7.79028 34.2685 7.61242 34.4811L6.83876 34.4624C6.22123 34.1534 5.7027 33.67 5.35167 33.0713C5.97413 34.151 7.13891 34.8615 8.44989 34.8615H24.5759C26.3824 34.8615 27.905 33.5138 28.1244 31.7207L29.9704 16.6317C30.1761 14.9502 29.1841 13.4259 27.7017 12.8578L29.6577 16.4155L27.2708 20.29H22.8363L20.6103 16.2414L22.8068 12.6225H20.7158L16.1508 20.1437L12.7225 20.0628L17.2461 12.6225H15.1542L14.1326 14.3028L13.2087 12.6225H11.1689L13.0614 16.0646L10.6601 20.0141L6.15177 19.9076L3.9719 15.8846L5.93131 12.6319ZM28.2578 22.0775H23.819L25.5223 25.1753L28.8998 25.2528L29.5409 20.013L28.2886 22.0458V22.0775H28.2691L28.266 22.0825L28.2578 22.0775ZM20.6246 33.7666C21.4204 31.411 22.9646 29.5811 25.2643 26.9574L28.6817 27.0358L28.6204 27.5366L24.3276 34.602C23.0363 34.1958 21.8102 33.9093 20.6246 33.7666ZM18.783 33.6641C19.1718 32.3458 19.7514 31.1869 20.4841 30.0681C19.5851 29.0523 18.7884 27.955 18.103 26.7925C16.9325 26.9678 15.677 27.0279 14.3441 27.0019C13.8925 28.5567 13.2579 29.8717 12.5238 31.0521C13.4685 31.9611 14.219 33.0949 14.8788 34.376C16.1691 33.9067 17.4578 33.6816 18.783 33.6641ZM17.2085 25.1061C16.724 24.0839 16.3205 23.0214 16.0035 21.9283L7.13316 21.7188L8.76169 24.7242C12.0382 25.1645 14.847 25.3637 17.2085 25.1061ZM8.27821 25.5294L8.25141 25.5439L8.27429 25.5578L8.27821 25.5294ZM9.64913 34.839C10.2763 34.0964 10.903 33.3481 11.4958 32.5523C12.0836 33.1676 12.6063 33.9281 13.1016 34.839H9.64913ZM26.711 34.1217C27.4245 33.5849 27.9335 32.785 28.0888 31.854L26.711 34.1217ZM23.855 25.853C23.0156 26.8096 22.2436 27.6979 21.5579 28.5778C19.7267 26.4196 18.3872 23.8803 17.638 21.1385L19.54 18.0048L23.855 25.853Z" fill="#EFDBCA" fill-opacity="0.8"/>
</svg>
